<svg width="200" height="200" viewBox="0 0 200 200" fill="none" xmlns="http://www.w3.org/2000/svg">
  <!-- Background Circle -->
  <circle cx="100" cy="100" r="95" fill="url(#gradient)" stroke="#3B82F6" stroke-width="2"/>
  
  <!-- Shark Body -->
  <ellipse cx="100" cy="110" rx="60" ry="35" fill="#60A5FA" stroke="#1E40AF" stroke-width="2"/>
  
  <!-- Shark Head -->
  <ellipse cx="140" cy="100" rx="25" ry="20" fill="#60A5FA" stroke="#1E40AF" stroke-width="2"/>
  
  <!-- Shark Tail -->
  <path d="M 40 100 Q 20 80 30 100 Q 20 120 40 100" fill="#60A5FA" stroke="#1E40AF" stroke-width="2"/>
  
  <!-- Eyes -->
  <circle cx="145" cy="95" r="4" fill="white"/>
  <circle cx="145" cy="95" r="2" fill="black"/>
  <circle cx="145" cy="105" r="4" fill="white"/>
  <circle cx="145" cy="105" r="2" fill="black"/>
  
  <!-- Teeth -->
  <rect x="150" y="95" width="2" height="8" fill="white"/>
  <rect x="152" y="97" width="2" height="6" fill="white"/>
  <rect x="154" y="99" width="2" height="4" fill="white"/>
  
  <!-- Paper with Fork Symbol -->
  <rect x="80" y="70" width="30" height="40" fill="white" stroke="#374151" stroke-width="1" rx="2"/>
  <circle cx="95" cy="80" r="2" fill="#374151"/>
  <circle cx="95" cy="90" r="2" fill="#374151"/>
  <circle cx="105" cy="80" r="2" fill="#374151"/>
  <line x1="95" y1="80" x2="95" y2="90" stroke="#374151" stroke-width="1"/>
  <line x1="95" y1="80" x2="105" y2="80" stroke="#374151" stroke-width="1"/>
  
  <!-- Bubbles -->
  <circle cx="60" cy="60" r="3" fill="#E0F2FE" opacity="0.7"/>
  <circle cx="70" cy="50" r="2" fill="#E0F2FE" opacity="0.5"/>
  <circle cx="50" cy="70" r="2" fill="#E0F2FE" opacity="0.6"/>
  
  <!-- Gradients -->
  <defs>
    <linearGradient id="gradient" x1="0%" y1="0%" x2="100%" y2="100%">
      <stop offset="0%" style="stop-color:#E0F2FE;stop-opacity:1" />
      <stop offset="100%" style="stop-color:#0EA5E9;stop-opacity:1" />
    </linearGradient>
  </defs>
</svg>
